<svg width="48" height="48" viewBox="0 0 48 48" fill="none" xmlns="http://www.w3.org/2000/svg">
<g clip-path="url(#clip0_2015_16)">
<path d="M23.538 38.8497C18.946 38.8497 14.7917 37.658 11.075 35.2747C7.35833 32.8914 4.5 29.783 2.5 25.9497C2.32067 25.6207 2.1925 25.2854 2.1155 24.9437C2.0385 24.602 2 24.254 2 23.8997C2 23.5454 2.0385 23.1974 2.1155 22.8557C2.1925 22.514 2.32067 22.1787 2.5 21.8497C4.46667 17.983 7.3 14.8747 11 12.5247C14.7 10.1747 18.875 8.9997 23.525 8.9997C28.175 8.9997 32.3667 10.208 36.1 12.6247C39.8333 15.0414 42.7 18.1997 44.7 22.0997C44.8617 22.4287 44.977 22.764 45.046 23.1057C45.1153 23.4474 45.15 23.7954 45.15 24.1497C45.15 24.504 45.1115 24.852 45.0345 25.1937C44.9575 25.5354 44.8293 25.8707 44.65 26.1997C42.65 30.033 39.7793 33.0997 36.038 35.3997C32.2963 37.6997 28.1297 38.8497 23.538 38.8497ZM23.55 32.6497C25.9667 32.6497 28.0208 31.8022 29.7125 30.1072C31.4042 28.4119 32.25 26.3535 32.25 23.9322C32.25 21.5105 31.4042 19.458 29.7125 17.7747C28.0208 16.0914 25.9667 15.2497 23.55 15.2497C21.1333 15.2497 19.0792 16.0939 17.3875 17.7822C15.6958 19.4702 14.85 21.5202 14.85 23.9322C14.85 26.3439 15.6958 28.3997 17.3875 30.0997C19.0792 31.7997 21.1333 32.6497 23.55 32.6497ZM23.544 30.0497C21.848 30.0497 20.4083 29.456 19.225 28.2687C18.0417 27.0814 17.45 25.6397 17.45 23.9437C17.45 22.2477 18.0437 20.808 19.231 19.6247C20.4183 18.4414 21.86 17.8497 23.556 17.8497C25.252 17.8497 26.6917 18.4434 27.875 19.6307C29.0583 20.818 29.65 22.2597 29.65 23.9557C29.65 25.6517 29.0563 27.0914 27.869 28.2747C26.6817 29.458 25.24 30.0497 23.544 30.0497Z" fill="#7322FF"/>
<path d="M23.612 8.96875C28.204 8.96875 32.3583 10.1604 36.075 12.5438C39.7917 14.9271 42.65 18.0354 44.65 21.8688C44.8293 22.1978 44.9575 22.5331 45.0345 22.8748C45.1115 23.2164 45.15 23.5644 45.15 23.9187C45.15 24.2731 45.1115 24.6211 45.0345 24.9628C44.9575 25.3044 44.8293 25.6398 44.65 25.9688C42.6833 29.8354 39.85 32.9438 36.15 35.2938C32.45 37.6438 28.275 38.8188 23.625 38.8188C18.975 38.8188 14.7833 37.6104 11.05 35.1938C7.31667 32.7771 4.45 29.6188 2.45 25.7188C2.28833 25.3898 2.173 25.0544 2.104 24.7128C2.03467 24.3711 2 24.0231 2 23.6687C2 23.3144 2.0385 22.9664 2.1155 22.6248C2.1925 22.2831 2.32067 21.9478 2.5 21.6188C4.5 17.7854 7.37067 14.7188 11.112 12.4188C14.8537 10.1188 19.0203 8.96875 23.612 8.96875ZM23.6 15.1688C21.1833 15.1688 19.1292 16.0163 17.4375 17.7113C15.7458 19.4066 14.9 21.4649 14.9 23.8863C14.9 26.3079 15.7458 28.3604 17.4375 30.0438C19.1292 31.7271 21.1833 32.5688 23.6 32.5688C26.0167 32.5688 28.0708 31.7246 29.7625 30.0363C31.4542 28.3483 32.3 26.2983 32.3 23.8863C32.3 21.4746 31.4542 19.4188 29.7625 17.7188C28.0708 16.0188 26.0167 15.1688 23.6 15.1688ZM23.606 17.7688C25.302 17.7688 26.7417 18.3624 27.925 19.5498C29.1083 20.7371 29.7 22.1788 29.7 23.8748C29.7 25.5708 29.1063 27.0104 27.919 28.1938C26.7317 29.3771 25.29 29.9688 23.594 29.9688C21.898 29.9688 20.4583 29.3751 19.275 28.1878C18.0917 27.0004 17.5 25.5588 17.5 23.8628C17.5 22.1668 18.0937 20.7271 19.281 19.5438C20.4683 18.3604 21.91 17.7688 23.606 17.7688Z" fill="#7322FF"/>
<path d="M34.1136 34.4999C30.8665 37.747 27.0863 39.8419 22.773 40.7847C18.4596 41.7275 14.2406 41.5507 10.1158 40.2544C9.75634 40.1485 9.42859 40.0021 9.13255 39.8149C8.83651 39.6278 8.56321 39.4089 8.31266 39.1584C8.06211 38.9078 7.84326 38.6345 7.65611 38.3385C7.46896 38.0424 7.32247 37.7147 7.21664 37.3552C5.87314 33.2305 5.67869 29.0291 6.63328 24.7511C7.58787 20.4731 9.70919 16.69 12.9972 13.402C16.2853 10.114 20.1037 8.00441 24.4524 7.07339C28.8011 6.14237 33.0614 6.34861 37.2333 7.69211C37.5803 7.81043 37.899 7.966 38.1893 8.1588C38.48 8.35137 38.7505 8.57293 39.0011 8.82348C39.2516 9.07403 39.4705 9.34733 39.6576 9.64337C39.8448 9.93942 39.9913 10.2672 40.0971 10.6266C41.3935 14.7514 41.5321 18.9497 40.5129 23.2216C39.4935 27.4937 37.3604 31.2531 34.1136 34.4999ZM29.738 30.1074C31.4468 28.3986 32.3001 26.3468 32.2977 23.952C32.2951 21.5571 31.4378 19.5035 29.7256 17.7914C28.0132 16.079 25.9638 15.2257 23.5773 15.2316C21.1908 15.2375 19.1432 16.0949 17.4343 17.8037C15.7255 19.5126 14.8699 21.562 14.8675 23.952C14.8649 26.3418 15.7164 28.3895 17.422 30.095C19.1273 31.8003 21.1791 32.6559 23.5773 32.6618C25.9756 32.6677 28.0292 31.8162 29.738 30.1074ZM27.8953 28.2732C26.696 29.4724 25.2582 30.0706 23.5819 30.0678C21.9056 30.065 20.4678 29.4639 19.2686 28.2647C18.0693 27.0654 17.4711 25.6276 17.4739 23.9513C17.4768 22.275 18.0778 20.8372 19.2771 19.638C20.4763 18.4387 21.9141 17.8405 23.5904 17.8433C25.2667 17.8462 26.7045 18.4472 27.9038 19.6465C29.103 20.8457 29.7012 22.2835 29.6984 23.9598C29.6956 25.6361 29.0945 27.0739 27.8953 28.2732Z" fill="#7322FF"/>
<path d="M13.0369 13.3186C16.2839 10.0716 20.0641 7.97664 24.3775 7.03383C28.6908 6.09102 32.9099 6.2678 37.0347 7.56416C37.3941 7.66999 37.7219 7.81648 38.0179 8.00363C38.3139 8.19077 38.5872 8.40962 38.8378 8.66017C39.0883 8.91073 39.3072 9.18402 39.4943 9.48007C39.6815 9.77611 39.828 10.1039 39.9338 10.4633C41.2773 14.5881 41.4718 18.7895 40.5172 23.0675C39.5626 27.3455 37.4413 31.1285 34.1532 34.4165C30.8652 37.7046 27.0468 39.8141 22.6981 40.7451C18.3494 41.6762 14.0891 41.4699 9.91712 40.1264C9.57017 40.0081 9.2515 39.8525 8.96111 39.6597C8.67049 39.4672 8.3999 39.2456 8.14935 38.9951C7.8988 38.7445 7.67995 38.4712 7.49281 38.1752C7.30566 37.8791 7.15917 37.5514 7.05334 37.1919C5.75697 33.0671 5.61838 28.8688 6.63756 24.5969C7.65697 20.3248 9.79008 16.5654 13.0369 13.3186ZM17.4125 17.7111C15.7036 19.42 14.8504 21.4718 14.8527 23.8665C14.8553 26.2615 15.7127 28.315 17.4248 30.0272C19.1372 31.7396 21.1866 32.5928 23.5731 32.5869C25.9596 32.581 28.0073 31.7236 29.7161 30.0148C31.425 28.306 32.2806 26.2565 32.2829 23.8665C32.2855 21.4767 31.434 19.4291 29.7285 17.7235C28.0232 16.0182 25.9714 15.1626 23.5731 15.1567C21.1748 15.1508 19.1213 16.0023 17.4125 17.7111ZM19.2552 19.5454C20.4544 18.3461 21.8922 17.7479 23.5685 17.7507C25.2448 17.7536 26.6826 18.3546 27.8819 19.5539C29.0811 20.7531 29.6793 22.1909 29.6765 23.8672C29.6737 25.5435 29.0726 26.9813 27.8734 28.1806C26.6741 29.3798 25.2364 29.978 23.56 29.9752C21.8837 29.9724 20.4459 29.3713 19.2467 28.1721C18.0474 26.9728 17.4492 25.535 17.4521 23.8587C17.4549 22.1824 18.0559 20.7446 19.2552 19.5454Z" fill="#7322FF"/>
<path d="M12.9844 34.4476C9.7374 31.2005 7.64248 27.4203 6.69967 23.107C5.75686 18.7936 5.93363 14.5746 7.23 10.4498C7.33583 10.0903 7.48232 9.76258 7.66946 9.46653C7.85661 9.17049 8.07546 8.8972 8.32601 8.64664C8.57656 8.39609 8.84986 8.17724 9.1459 7.99009C9.44195 7.80295 9.76969 7.65646 10.1291 7.55063C14.2539 6.20713 18.4553 6.01267 22.7333 6.96727C27.0113 7.92186 30.7943 10.0432 34.0824 13.3312C37.3704 16.6193 39.48 20.4377 40.411 24.7864C41.342 29.1351 41.1358 33.3954 39.7923 37.5673C39.6739 37.9143 39.5184 38.2329 39.3256 38.5233C39.133 38.8139 38.9114 39.0845 38.6609 39.3351C38.4103 39.5856 38.137 39.8045 37.841 39.9916C37.545 40.1788 37.2172 40.3253 36.8578 40.4311C32.733 41.7275 28.5347 41.8661 24.2628 40.8469C19.9907 39.8275 16.2312 37.6944 12.9844 34.4476ZM17.377 30.072C19.0858 31.7808 21.1376 32.6341 23.5323 32.6317C25.9273 32.6291 27.9809 31.7717 29.693 30.0596C31.4054 28.3472 32.2586 26.2978 32.2527 23.9113C32.2468 21.5248 31.3895 19.4772 29.6806 17.7683C27.9718 16.0595 25.9224 15.2039 23.5323 15.2015C21.1426 15.1989 19.0949 16.0504 17.3894 17.7559C15.684 19.4613 14.8284 21.513 14.8226 23.9113C14.8167 26.3096 15.6681 28.3631 17.377 30.072ZM19.2112 28.2293C18.012 27.03 17.4137 25.5922 17.4166 23.9159C17.4194 22.2396 18.0204 20.8018 19.2197 19.6026C20.419 18.4033 21.8567 17.8051 23.5331 17.8079C25.2094 17.8107 26.6471 18.4118 27.8464 19.611C29.0457 20.8103 29.6439 22.2481 29.641 23.9244C29.6382 25.6007 29.0372 27.0385 27.8379 28.2377C26.6387 29.437 25.2009 30.0352 23.5246 30.0324C21.8483 30.0296 20.4105 29.4285 19.2112 28.2293Z" fill="#7322FF"/>
<path d="M34.1658 13.3709C37.4128 16.6179 39.5077 20.3981 40.4505 24.7114C41.3934 29.0248 41.2166 33.2439 39.9202 37.3686C39.8144 37.7281 39.6679 38.0558 39.4807 38.3519C39.2936 38.6479 39.0748 38.9212 38.8242 39.1718C38.5736 39.4223 38.3004 39.6412 38.0043 39.8283C37.7083 40.0155 37.3805 40.162 37.0211 40.2678C32.8963 41.6113 28.6949 41.8057 24.4169 40.8512C20.1389 39.8966 16.3559 37.7752 13.0678 34.4872C9.77979 31.1991 7.67025 27.3808 6.73923 23.0321C5.80821 18.6834 6.01444 14.423 7.35795 10.2511C7.47627 9.90415 7.63183 9.58548 7.82464 9.2951C8.01721 9.00447 8.23877 8.73389 8.48932 8.48334C8.73987 8.23279 9.01317 8.01394 9.30921 7.82679C9.60525 7.63964 9.933 7.49315 10.2924 7.38732C14.4172 6.09096 18.6156 5.95237 22.8874 6.97154C27.1595 7.99095 30.919 10.1241 34.1658 13.3709ZM29.7732 17.7464C28.0644 16.0376 26.0126 15.1844 23.6179 15.1867C21.2229 15.1893 19.1693 16.0467 17.4572 17.7588C15.7448 19.4712 14.8916 21.5206 14.8975 23.9071C14.9034 26.2936 15.7607 28.3413 17.4696 30.0501C19.1784 31.7589 21.2278 32.6145 23.6179 32.6169C26.0077 32.6195 28.0553 31.768 29.7609 30.0625C31.4662 28.3572 32.3218 26.3054 32.3277 23.9071C32.3335 21.5088 31.4821 19.4553 29.7732 17.7464ZM27.939 19.5892C29.1383 20.7884 29.7365 22.2262 29.7336 23.9025C29.7308 25.5788 29.1298 27.0166 27.9305 28.2159C26.7313 29.4151 25.2935 30.0133 23.6172 30.0105C21.9408 30.0077 20.5031 29.4066 19.3038 28.2074C18.1046 27.0081 17.5063 25.5703 17.5092 23.894C17.512 22.2177 18.113 20.7799 19.3123 19.5807C20.5116 18.3814 21.9493 17.7832 23.6256 17.786C25.302 17.7889 26.7397 18.3899 27.939 19.5892Z" fill="#7322FF"/>
<path d="M38.5157 23.9464C38.5157 28.5384 37.3241 32.6927 34.9407 36.4094C32.5574 40.126 29.4491 42.9844 25.6157 44.9844C25.2867 45.1637 24.9514 45.2919 24.6097 45.3689C24.2681 45.4459 23.9201 45.4844 23.5657 45.4844C23.2114 45.4844 22.8634 45.4459 22.5217 45.3689C22.18 45.2919 21.8447 45.1637 21.5157 44.9844C17.6491 43.0177 14.5407 40.1844 12.1907 36.4844C9.84072 32.7844 8.66572 28.6094 8.66572 23.9594C8.66572 19.3094 9.87405 15.1177 12.2907 11.3844C14.7074 7.65104 17.8657 4.78437 21.7657 2.78437C22.0947 2.62271 22.43 2.50737 22.7717 2.43837C23.1134 2.36904 23.4614 2.33437 23.8157 2.33437C24.1701 2.33437 24.5181 2.37287 24.8597 2.44987C25.2014 2.52687 25.5367 2.65504 25.8657 2.83437C29.6991 4.83437 32.7657 7.70504 35.0657 11.4464C37.3657 15.188 38.5157 19.3547 38.5157 23.9464Z" fill="#7322FF"/>
<path d="M8.63477 23.8724C8.63477 19.2804 9.82643 15.126 12.2098 11.4094C14.5931 7.69271 17.7014 4.83437 21.5348 2.83437C21.8638 2.65504 22.1991 2.52687 22.5408 2.44987C22.8824 2.37287 23.2304 2.33437 23.5848 2.33437C23.9391 2.33437 24.2871 2.37287 24.6288 2.44987C24.9704 2.52687 25.3058 2.65504 25.6348 2.83437C29.5014 4.80104 32.6098 7.63437 34.9598 11.3344C37.3098 15.0344 38.4848 19.2094 38.4848 23.8594C38.4848 28.5094 37.2764 32.701 34.8598 36.4344C32.4431 40.1677 29.2848 43.0344 25.3848 45.0344C25.0558 45.196 24.7204 45.3114 24.3788 45.3804C24.0371 45.4497 23.6891 45.4844 23.3348 45.4844C22.9804 45.4844 22.6324 45.4459 22.2908 45.3689C21.9491 45.2919 21.6138 45.1637 21.2848 44.9844C17.4514 42.9844 14.3848 40.1137 12.0848 36.3724C9.78477 32.6307 8.63477 28.464 8.63477 23.8724Z" fill="#7322FF"/>
<path d="M18 32.8235V15.1765C18 14.8105 18.1159 14.5229 18.3478 14.3137C18.5797 14.1046 18.8502 14 19.1594 14C19.2625 14 19.3655 14.0131 19.4686 14.0392C19.5717 14.0654 19.6747 14.1046 19.7778 14.1569L33.4589 23.0196C33.6393 23.1503 33.7746 23.2941 33.8647 23.451C33.9549 23.6078 34 23.7909 34 24C34 24.2092 33.9549 24.3922 33.8647 24.549C33.7746 24.7059 33.6393 24.8497 33.4589 24.9804L19.7778 33.8431C19.6747 33.8954 19.5717 33.9346 19.4686 33.9608C19.3655 33.9869 19.2625 34 19.1594 34C18.8502 34 18.5797 33.8954 18.3478 33.6863C18.1159 33.4771 18 33.1895 18 32.8235Z" fill="white"/>
</g>
<defs>
<clipPath id="clip0_2015_16">
<rect width="48" height="48" fill="white"/>
</clipPath>
</defs>
</svg>
